# xmcd CD database file
#
# Track frame offsets:
#	150
#	15185
#	35030
#	48729
#	69405
#	85791
#	111614
#	131929
#	149921
#	166746
#	187787
#
# Disc length: 2705 seconds
#
# Revision: 0
# Processed by: cddbd v1.5.2PL0 Copyright (c) Steve Scherf et al.
# Submitted via: CDex 1.70beta2
#
DISCID=9c0a8f0b
DTITLE=Shannon Butcher - Little Hearts
DYEAR=2010
DGENRE=Jazz
TTITLE0=Joy In My Heart
TTITLE1=Walk On By
TTITLE2=The Last Word
TTITLE3=Hush
TTITLE4=Run To You
TTITLE5=(I Ain't In no Mood For) No DJ
TTITLE6=Simple Love
TTITLE7=What'll I Do?
TTITLE8=Smile
TTITLE9=Don't Forget Me (When I'm Gone)
TTITLE10=Better Kisser
EXTD=YEAR: 2010
EXTT0=
EXTT1=
EXTT2=
EXTT3=
EXTT4=
EXTT5=
EXTT6=
EXTT7=
EXTT8=
EXTT9=
EXTT10=
PLAYORDER=
